<?xml version="1.0" standalone="no"?>
<!DOCTYPE svg PUBLIC "-//W3C//DTD SVG 20010904//EN"
 "http://www.w3.org/TR/2001/REC-SVG-20010904/DTD/svg10.dtd">
<svg version="1.0" xmlns="http://www.w3.org/2000/svg"
 width="1024.000000pt" height="157.000000pt" viewBox="0 0 1024.000000 157.000000"
 preserveAspectRatio="xMidYMid meet">

<g transform="translate(0.000000,157.000000) scale(0.100000,-0.100000)"
fill="#000000" stroke="none">
<path d="M4698 1083 c-28 -4 -28 -5 -28 -84 0 -75 1 -79 23 -79 38 0 46 13 53
93 7 83 10 79 -48 70z"/>
<path d="M620 1035 c-63 -7 -118 -13 -122 -14 -5 -1 -8 -24 -8 -52 l0 -51 42
3 c46 4 56 -7 37 -42 -9 -17 -9 -24 0 -27 7 -2 11 -42 11 -123 0 -134 -2 -132
83 -108 l37 10 -6 155 -7 154 51 0 c52 0 52 0 52 33 0 55 -10 77 -34 76 -11
-1 -73 -8 -136 -14z"/>
<path d="M1659 1022 c-73 -47 -139 -142 -139 -201 0 -51 32 -64 134 -55 75 6
86 5 86 -9 0 -19 -70 -41 -111 -35 -24 4 -28 0 -42 -44 -14 -45 -14 -49 3 -58
95 -51 275 81 255 186 -5 30 -3 35 20 44 26 10 32 34 15 60 -8 12 -10 11 -10
-8 0 -30 -37 -43 -109 -40 -31 1 -68 -1 -83 -6 -36 -10 -49 16 -23 44 20 22
45 26 62 9 8 -8 21 -8 50 1 52 17 57 23 49 65 -15 78 -78 97 -157 47z"/>
<path d="M2812 1043 c-40 -8 -99 -76 -116 -134 -31 -103 -15 -192 43 -251 61
-60 132 -63 196 -7 114 100 105 315 -15 377 -43 21 -61 24 -108 15z m72 -125
c14 -20 14 -23 -5 -36 -27 -19 -49 -72 -49 -117 0 -40 -12 -45 -34 -13 -38 54
5 188 60 188 7 0 20 -10 28 -22z m26 -101 c0 -45 -22 -87 -46 -87 -20 0 -17
37 6 88 24 54 40 54 40 -1z"/>
<path d="M3230 1034 c-63 -7 -118 -13 -122 -13 -5 -1 -8 -24 -8 -52 l0 -51 42
4 c35 2 43 -1 46 -15 2 -10 -2 -25 -10 -34 -10 -13 -10 -17 0 -20 9 -4 12 -37
12 -124 l0 -119 28 1 c15 1 41 4 57 8 l30 6 0 155 0 155 50 5 c49 5 50 6 47
35 -5 62 -12 75 -35 74 -12 -1 -74 -7 -137 -15z"/>
<path d="M4005 1036 l-90 -11 -3 -209 c-2 -182 -1 -208 13 -203 8 4 65 14 125
24 l111 18 -7 49 c-6 46 -5 48 15 41 17 -5 21 -2 20 17 0 13 -4 32 -9 43 -7
17 -9 15 -9 -11 -1 -31 -3 -32 -53 -37 -29 -3 -63 -8 -75 -12 -20 -7 -23 -4
-23 23 0 28 3 30 50 36 l50 7 0 46 c0 50 1 49 -78 27 -21 -6 -23 -4 -20 22 3
28 6 29 67 38 l63 8 -6 30 c-3 17 -6 39 -6 49 0 22 -1 22 -135 5z"/>
<path d="M4321 1039 c-24 -5 -46 -10 -48 -13 -2 -2 -5 -97 -6 -210 l-2 -206
30 6 c70 15 70 15 67 88 -2 36 0 66 5 66 4 0 17 -17 29 -38 15 -28 19 -50 16
-94 -4 -56 -4 -58 -38 -64 -19 -3 -37 -10 -40 -15 -7 -12 48 -12 79 0 22 9 24
14 20 63 l-4 53 24 -29 25 -29 28 21 c16 11 37 29 48 41 19 20 18 21 -26 73
-63 75 -63 76 -34 99 59 47 74 131 31 174 -21 22 -32 25 -92 24 -37 -1 -88 -5
-112 -10z m115 -93 c6 -16 -55 -78 -68 -70 -11 7 -10 42 2 65 13 22 58 26 66
5z"/>
<path d="M4959 1030 c-20 -11 -62 -48 -94 -82 l-57 -63 7 61 c4 37 3 64 -3 68
-10 6 -22 -47 -22 -97 0 -21 -7 -30 -27 -39 l-28 -11 35 -6 c31 -5 35 -10 38
-38 5 -53 33 -65 128 -57 57 5 83 3 88 -5 10 -16 -59 -43 -102 -39 -34 3 -35
2 -48 -47 -7 -28 -11 -52 -9 -54 2 -2 24 -6 49 -8 110 -13 249 116 217 200 -9
23 -7 26 20 36 26 9 29 14 23 38 -9 36 -14 42 -14 16 0 -28 -42 -44 -115 -42
-33 1 -72 -2 -87 -6 -25 -7 -28 -5 -28 19 0 35 39 55 73 37 17 -9 30 -9 62 2
36 13 40 18 38 47 -3 77 -71 110 -144 70z"/>
<path d="M6050 1044 c-8 -1 -36 -5 -61 -9 l-47 -6 -6 -51 c-4 -29 -23 -112
-42 -186 -19 -74 -34 -140 -34 -147 0 -10 75 -35 105 -35 2 0 7 16 11 35 5 29
11 35 39 41 19 3 38 3 44 -1 18 -11 12 -47 -8 -52 -12 -3 -21 -17 -26 -39 -6
-33 -7 -34 -48 -29 -47 6 -25 -8 30 -18 29 -6 32 -4 38 23 8 35 25 46 94 61
28 6 51 15 51 20 0 5 -13 58 -30 117 -16 59 -37 146 -46 195 -17 89 -19 91
-64 81z m-15 -205 c6 -47 4 -63 -6 -70 -16 -10 -34 -6 -34 7 1 39 18 124 25
124 4 0 11 -28 15 -61z"/>
<path d="M6300 1026 c-30 -13 -54 -29 -52 -35 1 -7 25 -62 52 -124 l50 -111
-20 -60 c-11 -33 -20 -64 -20 -68 0 -5 23 -8 51 -6 l51 3 37 110 c21 61 56
151 78 202 46 102 46 103 -39 103 -29 0 -38 -5 -44 -22 -3 -12 -13 -28 -20
-36 -8 -7 -14 -27 -14 -43 0 -47 -17 -25 -31 39 -7 31 -15 60 -18 64 -3 3 -31
-4 -61 -16z"/>
<path d="M7045 1033 c-3 -10 -9 -49 -12 -88 -8 -103 -18 -108 -33 -17 -8 45
-16 86 -20 92 -5 7 -22 7 -57 0 l-51 -11 23 -87 c13 -48 31 -127 40 -177 9
-49 19 -101 21 -114 5 -21 9 -23 50 -18 25 2 47 7 49 9 3 2 10 39 16 82 13 89
29 85 29 -9 0 -83 4 -87 72 -74 l56 11 11 74 c11 67 51 248 67 301 5 19 1 22
-43 29 -26 4 -50 7 -52 8 -9 2 -31 -101 -31 -146 0 -86 -17 -59 -30 47 l-12
105 -43 0 c-32 0 -45 -5 -50 -17z"/>
<path d="M7500 1035 c-52 -7 -96 -14 -97 -14 -6 -2 -3 -249 3 -327 l7 -81 61
13 c33 7 89 16 124 20 49 5 62 10 58 21 -4 8 -6 33 -6 55 l0 41 -47 -6 c-27
-4 -58 -9 -71 -13 -21 -6 -23 -4 -20 22 3 26 8 30 55 38 l52 9 -1 44 c-2 39
-5 44 -23 40 -90 -21 -89 -21 -82 -3 4 10 7 23 7 31 0 8 21 15 61 19 l60 7 -3
47 c-4 56 -2 55 -138 37z"/>
<path d="M7860 1035 c-52 -7 -96 -14 -98 -14 -1 -1 -1 -92 0 -203 2 -139 6
-202 14 -201 6 1 61 10 122 20 l112 17 0 49 c0 40 3 48 15 43 12 -4 15 3 15
29 0 19 -4 35 -8 35 -5 0 -8 -10 -8 -22 1 -20 -5 -24 -49 -29 -27 -3 -63 -9
-78 -14 -27 -7 -28 -6 -25 21 3 26 8 30 55 38 l51 9 -1 43 c-2 49 -3 49 -58
32 -46 -13 -52 -9 -44 25 6 22 14 25 66 31 l59 7 0 34 c0 45 -9 65 -29 64 -9
-1 -59 -7 -111 -14z"/>
<path d="M8620 1034 c-52 -7 -96 -13 -98 -13 -1 -1 -1 -45 2 -98 2 -54 5 -145
5 -203 l1 -105 126 20 125 20 -5 29 c-3 16 -6 39 -6 52 0 28 -27 32 -91 12
-45 -13 -54 -8 -45 26 5 20 14 25 56 31 l50 7 0 45 c0 50 1 49 -78 27 -21 -6
-23 -4 -20 22 3 27 6 29 66 38 58 8 63 11 58 30 -3 12 -6 33 -6 49 0 31 4 31
-140 11z"/>
<path d="M8918 1043 l-28 -4 0 -215 c0 -234 -4 -222 63 -203 l37 10 0 60 c0
38 4 58 10 54 18 -11 40 -77 40 -120 0 -41 -1 -43 -37 -52 -48 -11 -60 -38
-12 -28 68 13 69 14 69 53 0 35 2 37 34 39 19 2 45 7 59 12 24 9 24 10 30 203
3 106 4 194 2 196 -2 2 -27 1 -54 -3 -44 -6 -51 -10 -51 -29 0 -12 -5 -27 -10
-32 -8 -8 -8 -32 0 -79 10 -64 8 -87 -7 -72 -4 4 -19 53 -33 110 -26 99 -27
102 -56 103 -16 1 -41 -1 -56 -3z"/>
<path d="M930 1031 l-35 -6 -3 -195 c-1 -107 0 -200 2 -206 4 -10 16 -9 53 0
l48 12 3 62 c3 57 5 62 28 68 14 4 26 5 28 3 2 -2 1 -44 -3 -94 l-6 -89 -42
-9 c-48 -9 -58 -28 -15 -26 52 2 77 14 75 37 -3 21 18 31 90 44 16 3 18 20 22
206 l3 204 -51 -7 c-29 -4 -56 -11 -62 -16 -5 -5 -11 -42 -13 -82 -4 -70 -12
-87 -41 -87 -11 0 -12 17 -7 95 8 107 13 101 -74 86z"/>
<path d="M1340 1031 l-35 -6 -3 -203 -2 -204 32 7 c72 16 67 1 72 218 6 219
12 202 -64 188z"/>
<path d="M2277 1033 c-34 -5 -41 -20 -56 -117 -7 -43 -24 -123 -37 -178 -13
-55 -24 -103 -24 -108 0 -8 89 -24 96 -17 5 4 34 170 34 191 0 5 3 6 8 2 4 -4
9 -51 12 -104 4 -78 8 -97 20 -95 87 9 87 9 94 71 12 100 18 124 28 114 5 -5
10 -56 11 -112 l2 -103 -40 -11 c-48 -14 -27 -28 29 -19 28 4 35 10 38 31 3
25 14 32 81 47 22 4 27 10 22 23 -13 34 -64 249 -75 320 l-12 72 -47 0 c-44 0
-48 -2 -59 -33 -7 -18 -12 -53 -13 -78 -1 -92 -16 -87 -30 11 -16 103 -16 103
-82 93z"/>
<path d="M3540 1031 l-35 -6 -3 -195 c-1 -107 0 -200 2 -206 3 -9 18 -9 58 1
l53 12 -4 58 c-3 59 5 75 41 75 15 0 16 -9 11 -87 -5 -69 -4 -85 7 -78 7 4 36
13 64 19 l51 11 5 200 c3 110 4 201 3 203 -1 2 -27 0 -58 -3 -66 -9 -75 -22
-75 -115 0 -43 -4 -59 -16 -64 -32 -12 -34 -6 -28 89 l7 95 -24 -1 c-13 -1
-40 -4 -59 -8z"/>
<path d="M5487 1033 l-27 -4 2 -202 c3 -201 3 -202 26 -205 36 -5 126 26 178
61 132 91 137 271 8 332 -38 18 -135 27 -187 18z m144 -123 c22 -19 23 -21 7
-30 -13 -8 -18 -24 -18 -53 0 -41 -21 -87 -41 -87 -10 0 -13 173 -2 183 11 12
30 8 54 -13z m29 -67 c0 -5 -5 -15 -10 -23 -8 -12 -10 -11 -10 8 0 12 5 22 10
22 6 0 10 -3 10 -7z"/>
<path d="M8155 1031 l-30 -6 -3 -204 c-2 -174 0 -203 12 -198 8 3 30 9 50 12
l35 7 3 92 3 91 20 -40 c14 -29 19 -62 20 -115 l0 -75 -37 -9 c-68 -17 -41
-34 31 -20 29 6 31 9 31 53 1 46 1 46 15 19 l15 -26 51 21 c28 12 54 28 56 34
3 7 -22 62 -56 122 -34 60 -61 111 -61 114 0 2 25 24 55 48 30 24 55 46 55 50
0 7 -67 39 -84 39 -7 0 -31 -16 -53 -35 -23 -19 -44 -35 -47 -35 -3 0 -6 16
-6 35 0 38 -8 41 -75 26z"/>
<path d="M9339 1034 c-35 -7 -36 -18 -31 -238 l5 -176 26 0 c51 0 130 30 179
69 76 61 111 153 87 232 -9 30 -52 76 -88 95 -29 15 -133 26 -178 18z m149
-132 c10 -14 10 -18 0 -21 -21 -6 -28 -23 -28 -67 0 -40 -28 -83 -43 -67 -9 8
-9 110 -1 152 6 29 10 32 33 26 14 -3 32 -14 39 -23z"/>
<path d="M4192 945 c3 -37 1 -40 -24 -43 -43 -5 -33 -24 10 -20 36 3 37 4 34
38 -6 52 -23 75 -20 25z"/>
<path d="M8812 945 c3 -39 2 -40 -29 -43 -47 -5 -41 -22 7 -22 40 0 40 0 40
38 0 20 -5 44 -11 52 -7 11 -9 5 -7 -25z"/>
<path d="M9239 968 c-1 -7 -4 -92 -8 -188 l-6 -174 -42 -9 c-60 -12 -56 -32 4
-23 26 3 50 10 54 14 10 11 18 392 8 392 -5 0 -10 -6 -10 -12z"/>
<path d="M1225 863 c-4 -58 -5 -144 -2 -189 l5 -84 -37 -10 c-20 -5 -42 -10
-48 -10 -7 0 -13 -5 -13 -11 0 -13 88 -5 102 9 10 10 19 402 8 402 -4 0 -11
-48 -15 -107z"/>
<path d="M1459 958 c-1 -16 -9 -339 -9 -355 0 -7 -16 -15 -35 -19 -46 -8 -55
-24 -13 -23 70 1 67 -6 72 212 3 118 1 197 -5 197 -5 0 -9 -6 -10 -12z"/>
<path d="M2565 953 c2 -10 9 -47 15 -83 13 -77 61 -262 67 -257 2 2 -10 58
-26 123 -16 65 -32 143 -36 171 -4 29 -11 55 -15 58 -4 3 -7 -3 -5 -12z"/>
<path d="M3839 823 c-1 -82 -1 -167 0 -190 3 -40 2 -42 -36 -52 -21 -6 -45
-11 -53 -11 -10 0 -11 -3 -3 -11 8 -8 26 -9 58 -3 l46 9 4 203 c3 128 1 202
-5 202 -6 0 -11 -59 -11 -147z"/>
<path d="M6155 954 c28 -125 58 -245 61 -242 5 6 -48 242 -57 252 -4 5 -6 0
-4 -10z"/>
<path d="M6590 924 c-35 -79 -75 -183 -104 -271 l-28 -83 -39 0 c-21 0 -39 -5
-39 -11 0 -6 20 -9 51 -7 l51 3 27 85 c15 47 49 136 75 199 31 74 44 117 38
123 -7 7 -18 -7 -32 -38z"/>
<path d="M7691 938 c-1 -35 -3 -38 -31 -38 -16 0 -30 -4 -30 -10 0 -5 18 -10
40 -10 37 0 40 2 39 28 0 15 -4 36 -9 47 -7 16 -9 13 -9 -17z"/>
<path d="M8051 938 c-1 -35 -3 -38 -31 -38 -16 0 -30 -4 -30 -10 0 -5 18 -10
40 -10 35 0 40 3 39 23 -1 12 -5 33 -9 47 -7 22 -8 21 -9 -12z"/>
<path d="M841 934 c-1 -36 -14 -44 -68 -44 l-36 0 6 -154 7 -154 -51 -12 c-59
-15 -53 -34 8 -24 65 10 64 7 54 149 -10 153 -5 175 41 175 52 0 62 11 50 56
-10 39 -10 39 -11 8z"/>
<path d="M3452 940 c4 -39 -9 -50 -59 -50 l-46 0 7 -154 c7 -171 13 -156 -62
-171 -45 -9 -29 -28 17 -20 76 13 70 0 68 168 l-2 152 25 3 c72 8 84 23 59 77
-8 18 -8 18 -7 -5z"/>
<path d="M7332 868 c-13 -51 -31 -136 -40 -188 l-17 -94 -42 -11 c-23 -5 -45
-13 -49 -17 -9 -9 41 -10 83 -2 29 6 30 8 47 107 10 55 28 142 41 194 21 86
21 103 6 103 -4 0 -17 -42 -29 -92z"/>
<path d="M8417 907 c-44 -39 -60 -67 -38 -67 5 0 31 20 58 44 32 30 45 48 38
54 -7 7 -26 -3 -58 -31z"/>
<path d="M4600 907 c0 -23 -41 -95 -63 -108 -5 -4 -7 -14 -4 -24 9 -21 21 -13
58 37 29 41 39 100 19 113 -6 3 -10 -4 -10 -18z"/>
<path d="M3061 801 c-1 -131 -63 -221 -161 -237 -40 -7 -42 -8 -19 -16 60 -23
139 25 179 107 23 48 29 149 12 196 -8 18 -10 7 -11 -50z"/>
<path d="M5820 825 c0 -79 -67 -178 -148 -218 -15 -8 -51 -20 -79 -27 -67 -15
-71 -35 -6 -26 101 14 197 79 234 159 20 45 25 113 9 137 -7 11 -10 5 -10 -25z"/>
<path d="M9660 820 c-1 -81 -55 -164 -135 -208 -16 -8 -57 -23 -90 -33 -45
-13 -55 -19 -42 -24 10 -4 46 0 81 9 120 33 206 127 206 225 0 25 -5 53 -10
61 -7 11 -10 3 -10 -30z"/>
<path d="M8791 793 c-1 -18 -1 -36 -2 -40 0 -4 4 -9 10 -11 13 -4 13 34 1 63
-7 17 -9 15 -9 -12z"/>
<path d="M7668 785 c-7 -33 0 -51 13 -38 5 5 5 22 0 38 l-8 30 -5 -30z"/>
<path d="M1891 708 c-12 -35 -78 -107 -120 -128 -13 -7 -44 -15 -70 -19 -43
-7 -44 -8 -18 -15 69 -20 176 38 215 116 17 34 21 52 14 64 -8 14 -11 12 -21
-18z"/>
<path d="M5177 711 c-13 -64 -102 -134 -190 -150 -41 -8 -41 -8 -14 -16 86
-24 227 76 227 162 0 41 -15 43 -23 4z"/>
<path d="M6221 684 c0 -11 3 -14 6 -6 3 7 2 16 -1 19 -3 4 -6 -2 -5 -13z"/>
<path d="M4203 645 l2 -39 -108 -17 c-60 -10 -111 -20 -115 -23 -16 -16 17
-17 106 -2 54 9 108 16 121 16 21 0 22 3 16 43 -9 56 -26 72 -22 22z"/>
<path d="M7702 655 c1 -52 -1 -55 -29 -55 -37 -1 -183 -27 -191 -34 -16 -16
18 -16 122 0 113 18 116 19 115 44 -1 14 -5 36 -10 50 -8 24 -8 24 -7 -5z"/>
<path d="M8061 643 c-1 -37 -4 -43 -23 -43 -51 0 -208 -34 -199 -43 6 -6 52
-2 125 9 113 18 116 20 115 44 -1 14 -5 36 -9 50 -7 21 -8 19 -9 -17z"/>
<path d="M8822 645 l3 -39 -108 -17 c-60 -10 -111 -20 -115 -23 -16 -17 18
-17 125 1 l118 19 -3 39 c-2 22 -8 45 -14 50 -6 7 -9 -3 -6 -30z"/>
<path d="M4577 609 c-37 -31 -47 -49 -25 -49 18 0 78 50 78 66 0 21 -11 17
-53 -17z"/>
<path d="M6241 614 c-1 -17 -9 -23 -38 -29 -44 -8 -55 -14 -48 -24 7 -12 105
10 104 23 0 6 -4 20 -9 31 -8 19 -9 19 -9 -1z"/>
<path d="M8438 594 c-43 -22 -62 -44 -39 -44 25 0 101 41 101 55 0 20 -6 19
-62 -11z"/>
<path d="M2651 593 c0 -6 -19 -15 -42 -20 -49 -10 -48 -29 1 -25 42 4 53 14
47 38 -3 11 -5 14 -6 7z"/>
<path d="M2310 575 c0 -15 -7 -17 -42 -12 -51 7 -31 -8 25 -18 30 -6 37 -4 37
9 0 9 0 19 1 23 0 4 -4 9 -10 11 -6 2 -11 -4 -11 -13z"/>
<path d="M3613 578 c-48 -10 -58 -29 -15 -27 41 1 75 13 80 27 4 14 -6 14 -65
0z"/>
<path d="M7110 581 c0 -5 -19 -11 -42 -15 -55 -9 -37 -27 20 -19 32 4 42 10
42 24 0 11 -4 19 -10 19 -5 0 -10 -4 -10 -9z"/>
</g>
</svg>
